<mxfile host="app.diagrams.net" modified="2020-10-29T12:19:58.835Z" agent="5.0 (Windows)" etag="boCPhKydZ_pNZQ5kbUAI" version="13.8.5" type="github" pages="2">
  <diagram id="mrOTsqda7IKm6iGV-Wj5" name="High-level workflow">
    <mxGraphModel dx="957" dy="465" grid="1" gridSize="10" guides="1" tooltips="1" connect="1" arrows="1" fold="1" page="1" pageScale="1" pageWidth="850" pageHeight="1100" math="0" shadow="0">
      <root>
        <mxCell id="0" />
        <mxCell id="1" parent="0" />
        <mxCell id="Ee-T2DxK372GyuqHqMaR-1" value="&lt;span&gt;Food-order Management Engine &lt;/span&gt;" style="rounded=1;whiteSpace=wrap;html=1;" parent="1" vertex="1">
          <mxGeometry x="210" y="521" width="290" height="50" as="geometry" />
        </mxCell>
        <mxCell id="Ee-T2DxK372GyuqHqMaR-2" value="Item / Product Manager" style="rounded=1;whiteSpace=wrap;html=1;" parent="1" vertex="1">
          <mxGeometry x="40" y="521" width="160" height="50" as="geometry" />
        </mxCell>
        <mxCell id="Ee-T2DxK372GyuqHqMaR-4" value="User Management System" style="rounded=1;whiteSpace=wrap;html=1;" parent="1" vertex="1">
          <mxGeometry x="210" y="370" width="120" height="40" as="geometry" />
        </mxCell>
        <mxCell id="Ee-T2DxK372GyuqHqMaR-5" value="&lt;p&gt;&lt;span&gt;&lt;span&gt;&lt;/span&gt;&lt;/span&gt;&lt;span&gt;Mobile and Web interface&lt;/span&gt;&lt;/p&gt;" style="rounded=1;whiteSpace=wrap;html=1;" parent="1" vertex="1">
          <mxGeometry x="210" y="311" width="120" height="40" as="geometry" />
        </mxCell>
        <mxCell id="Ee-T2DxK372GyuqHqMaR-6" value="Actor - Customer" style="shape=umlActor;verticalLabelPosition=bottom;verticalAlign=top;html=1;outlineConnect=0;" parent="1" vertex="1">
          <mxGeometry x="255" y="200" width="30" height="60" as="geometry" />
        </mxCell>
        <mxCell id="Ee-T2DxK372GyuqHqMaR-7" value="Actor - Employee" style="shape=umlActor;verticalLabelPosition=bottom;verticalAlign=top;html=1;outlineConnect=0;" parent="1" vertex="1">
          <mxGeometry x="410" y="200" width="30" height="60" as="geometry" />
        </mxCell>
        <mxCell id="Ee-T2DxK372GyuqHqMaR-8" value="&lt;p&gt;&lt;span&gt;Store/Kiosk Sale&lt;/span&gt;&lt;/p&gt;" style="rounded=1;whiteSpace=wrap;html=1;" parent="1" vertex="1">
          <mxGeometry x="370" y="311" width="110" height="40" as="geometry" />
        </mxCell>
        <mxCell id="Ee-T2DxK372GyuqHqMaR-9" value="&lt;p&gt;&lt;span&gt;Payment Engine&lt;/span&gt;&lt;/p&gt;" style="rounded=1;whiteSpace=wrap;html=1;" parent="1" vertex="1">
          <mxGeometry x="210" y="441" width="180" height="40" as="geometry" />
        </mxCell>
        <mxCell id="Ee-T2DxK372GyuqHqMaR-11" value="&lt;div&gt;IoT Devices&lt;/div&gt;&lt;div&gt;(Smart Fridge)&lt;br&gt;&lt;/div&gt;" style="rounded=0;whiteSpace=wrap;html=1;" parent="1" vertex="1">
          <mxGeometry x="510" y="220" width="120" height="60" as="geometry" />
        </mxCell>
        <mxCell id="Ee-T2DxK372GyuqHqMaR-15" value="&lt;p&gt;&lt;span&gt;IoT Communication Agent&lt;/span&gt;&lt;/p&gt;" style="rounded=1;whiteSpace=wrap;html=1;" parent="1" vertex="1">
          <mxGeometry x="510" y="370" width="120" height="40" as="geometry" />
        </mxCell>
        <mxCell id="Ee-T2DxK372GyuqHqMaR-18" value="Marketing &amp;amp; Promotion System" style="rounded=1;whiteSpace=wrap;html=1;" parent="1" vertex="1">
          <mxGeometry x="690" y="521" width="120" height="50" as="geometry" />
        </mxCell>
        <mxCell id="Ee-T2DxK372GyuqHqMaR-20" value="" style="shape=cylinder3;whiteSpace=wrap;html=1;boundedLbl=1;backgroundOutline=1;size=15;" parent="1" vertex="1">
          <mxGeometry x="50" y="720" width="460" height="80" as="geometry" />
        </mxCell>
        <mxCell id="Ee-T2DxK372GyuqHqMaR-21" value="" style="shape=cylinder3;whiteSpace=wrap;html=1;boundedLbl=1;backgroundOutline=1;size=15;" parent="1" vertex="1">
          <mxGeometry x="600" y="710" width="200" height="80" as="geometry" />
        </mxCell>
        <mxCell id="ngMTxoCWcMnQXUnhPLw1-1" value="&lt;p&gt;&lt;span&gt;IoT Cloud Management&lt;/span&gt;&lt;/p&gt;" style="rounded=1;whiteSpace=wrap;html=1;" parent="1" vertex="1">
          <mxGeometry x="510" y="310" width="120" height="40" as="geometry" />
        </mxCell>
        <mxCell id="ngMTxoCWcMnQXUnhPLw1-2" value="Inventory Management" style="rounded=1;whiteSpace=wrap;html=1;" parent="1" vertex="1">
          <mxGeometry x="520" y="521" width="160" height="50" as="geometry" />
        </mxCell>
        <mxCell id="ngMTxoCWcMnQXUnhPLw1-3" value="Feedback &amp;amp; survey Manager" style="rounded=1;whiteSpace=wrap;html=1;" parent="1" vertex="1">
          <mxGeometry x="690" y="610" width="120" height="50" as="geometry" />
        </mxCell>
      </root>
    </mxGraphModel>
  </diagram>
  <diagram id="mLuGweBeVFACzaW6kUMk" name="Component-Interaction">
    <mxGraphModel dx="957" dy="465" grid="1" gridSize="10" guides="1" tooltips="1" connect="1" arrows="1" fold="1" page="1" pageScale="1" pageWidth="850" pageHeight="1100" math="0" shadow="0">
      <root>
        <mxCell id="47JE0T4bK4KaNATsRKXX-0" />
        <mxCell id="47JE0T4bK4KaNATsRKXX-1" parent="47JE0T4bK4KaNATsRKXX-0" />
      </root>
    </mxGraphModel>
  </diagram>
</mxfile>
